<?xml version="1.0" standalone="no"?>
<!DOCTYPE svg PUBLIC "-//W3C//DTD SVG 20010904//EN"
 "http://www.w3.org/TR/2001/REC-SVG-20010904/DTD/svg10.dtd">
<svg version="1.0" xmlns="http://www.w3.org/2000/svg"
 width="1024.000000pt" height="1024.000000pt" viewBox="0 0 1024.000000 1024.000000"
 preserveAspectRatio="xMidYMid meet">
<metadata>
Created by potrace 1.11, written by Peter Selinger 2001-2013
</metadata>
<g transform="translate(0.000000,1024.000000) scale(0.100000,-0.100000)"
fill="#000000" stroke="none">
<path d="M5106 10218 c-3 -7 -17 -31 -31 -53 -14 -22 -28 -47 -32 -55 -4 -8
-65 -114 -135 -234 -71 -121 -138 -235 -149 -255 -10 -20 -24 -43 -29 -51 -38
-59 -90 -152 -90 -160 0 -6 -4 -10 -10 -10 -5 0 -10 -4 -10 -9 0 -13 -152
-275 -162 -279 -4 -2 -8 -8 -8 -13 0 -5 -39 -76 -86 -157 -48 -81 -96 -163
-107 -182 -49 -88 -132 -228 -148 -252 -11 -15 -19 -29 -19 -32 0 -2 -27 -50
-60 -106 -33 -56 -60 -103 -60 -106 0 -2 -15 -27 -33 -56 -19 -29 -45 -73 -59
-98 -14 -25 -48 -84 -77 -132 -28 -48 -51 -91 -51 -97 0 -5 -4 -11 -8 -13 -5
-1 -22 -28 -39 -58 -17 -30 -76 -133 -132 -228 -55 -95 -101 -177 -101 -181 0
-5 -3 -11 -8 -13 -6 -3 -34 -49 -122 -202 -10 -17 -104 -179 -210 -361 -106
-181 -201 -344 -211 -362 -10 -17 -29 -50 -43 -72 -15 -22 -26 -43 -26 -47 0
-3 -8 -18 -19 -32 -10 -15 -29 -47 -43 -72 -70 -124 -113 -196 -122 -202 -6
-4 -8 -8 -4 -8 3 0 -18 -41 -48 -90 -30 -50 -54 -94 -54 -97 0 -4 -6 -14 -14
-22 -7 -9 -25 -36 -38 -61 -14 -25 -65 -112 -113 -195 -127 -217 -126 -216
-154 -265 -14 -25 -29 -46 -33 -48 -4 -2 -8 -8 -8 -13 0 -5 -27 -56 -60 -111
l-59 -102 27 -18 c23 -15 179 -111 247 -151 11 -7 38 -23 60 -37 22 -14 49
-30 60 -37 88 -52 556 -339 577 -354 15 -10 29 -19 32 -19 3 0 54 -31 114 -68
60 -38 115 -72 123 -75 8 -4 34 -20 59 -37 25 -16 77 -47 115 -70 39 -22 108
-65 155 -95 47 -30 90 -54 97 -55 6 0 13 -4 15 -8 1 -4 19 -17 38 -28 19 -12
116 -71 215 -131 99 -60 191 -116 205 -124 14 -8 27 -17 30 -20 3 -4 21 -15
40 -25 19 -11 46 -27 60 -35 111 -71 373 -229 380 -229 5 0 10 -3 12 -7 2 -5
59 -42 128 -83 69 -41 127 -78 128 -82 2 -5 8 -8 13 -8 5 0 31 -14 59 -31 l50
-31 202 123 c112 67 210 128 218 134 8 7 35 24 60 37 61 34 204 121 210 129 3
3 10 8 15 10 24 9 371 224 377 234 4 5 8 7 8 2 0 -4 26 11 59 33 32 22 61 40
64 40 4 0 45 25 92 55 46 30 87 55 89 55 9 0 141 85 144 92 2 5 8 8 13 8 5 0
176 103 381 228 205 126 436 266 513 313 77 46 142 86 145 89 12 12 262 160
270 160 6 0 10 3 10 8 0 4 36 27 80 52 44 25 80 51 80 57 0 7 -18 42 -40 78
-22 36 -40 70 -40 75 0 6 -4 10 -10 10 -5 0 -10 5 -10 10 0 6 -32 65 -71 133
-88 150 -108 185 -126 217 -8 14 -23 39 -33 55 -11 17 -23 37 -27 45 -5 8 -57
100 -118 203 -60 103 -119 204 -130 224 -11 21 -44 79 -74 128 -29 50 -70 119
-91 155 -21 36 -61 106 -90 155 -29 50 -71 122 -93 160 -22 39 -47 78 -55 88
-8 9 -12 17 -8 17 4 0 -4 15 -18 33 -15 19 -26 37 -26 41 0 3 -46 84 -101 179
-56 94 -110 187 -120 205 -47 81 -58 100 -89 152 -37 62 -61 105 -98 170 -14
25 -32 56 -41 70 -33 51 -41 65 -48 80 -4 8 -43 75 -86 150 -44 74 -90 153
-102 175 -13 22 -57 98 -99 169 -42 70 -76 132 -76 137 0 5 -5 9 -10 9 -6 0
-9 3 -8 8 1 4 -5 18 -13 32 -50 78 -229 391 -229 399 0 6 -3 11 -7 11 -5 0
-13 10 -19 23 -10 21 -134 236 -153 267 -9 13 -113 192 -161 275 -9 17 -72
125 -140 240 -118 201 -283 486 -320 551 -45 78 -52 86 -64 62z"/>
<path d="M2091 4413 c2 -5 21 -33 42 -63 21 -30 132 -192 247 -360 115 -168
213 -310 218 -316 5 -5 15 -21 22 -35 7 -13 16 -26 20 -29 3 -3 49 -68 101
-145 52 -77 96 -142 99 -145 3 -3 25 -34 49 -70 24 -36 63 -92 86 -125 23 -33
90 -132 150 -220 60 -88 111 -162 114 -165 3 -3 11 -13 16 -22 6 -9 34 -52 64
-95 29 -43 77 -112 105 -153 28 -41 53 -77 56 -80 6 -6 200 -293 215 -317 6
-9 20 -28 33 -42 12 -14 22 -31 22 -38 0 -7 4 -13 8 -13 5 0 15 -12 23 -27 8
-16 16 -30 19 -33 3 -3 66 -93 139 -200 74 -107 137 -196 142 -198 5 -2 9 -8
9 -14 0 -12 61 -102 72 -106 4 -2 8 -9 8 -15 0 -6 7 -19 17 -29 9 -10 21 -27
27 -37 6 -10 54 -80 106 -156 52 -75 102 -147 110 -160 8 -13 47 -69 85 -125
74 -107 216 -313 287 -418 24 -35 48 -69 54 -76 6 -6 13 -16 15 -21 8 -19 183
-270 191 -273 4 -2 8 -8 8 -12 0 -5 11 -25 24 -44 28 -42 22 -48 122 104 38
58 71 107 74 110 16 14 80 111 80 120 0 6 3 10 8 10 4 0 16 16 26 35 11 19 23
35 27 35 4 0 11 9 14 20 3 11 12 26 18 32 7 7 32 42 56 78 93 138 126 185 134
188 4 2 7 9 7 16 0 7 8 21 18 32 17 20 97 134 207 299 33 50 62 92 65 95 7 7
86 122 134 195 22 33 43 62 47 65 3 3 12 16 19 29 7 14 17 30 22 35 10 12 111
158 232 336 39 58 73 107 76 110 3 3 32 46 65 95 33 50 62 92 65 95 3 3 37 52
75 110 39 58 76 109 83 113 6 4 12 12 12 17 0 9 77 126 98 148 6 7 12 17 12
21 0 4 8 16 18 27 9 10 33 44 52 74 19 30 43 64 52 74 10 11 18 23 18 27 0 4
6 14 13 21 20 22 97 139 97 148 0 5 6 13 13 17 7 4 34 42 62 83 27 41 51 77
54 80 3 3 33 46 66 95 78 115 468 685 524 764 6 9 37 54 69 102 32 47 88 128
124 180 36 51 74 108 84 124 l19 30 -25 -16 c-68 -42 -356 -217 -393 -238 -23
-13 -44 -27 -47 -30 -5 -6 -27 -19 -75 -46 -11 -6 -40 -23 -65 -39 -25 -15
-54 -34 -65 -41 -11 -7 -24 -12 -29 -13 -5 0 -12 -4 -15 -9 -3 -5 -28 -22 -55
-38 -28 -17 -66 -40 -85 -52 -20 -13 -52 -32 -71 -43 -19 -11 -53 -32 -75 -45
-22 -14 -47 -28 -55 -32 -8 -4 -19 -11 -25 -15 -21 -18 -237 -148 -246 -148
-5 0 -9 -4 -9 -9 0 -5 -8 -12 -17 -15 -20 -7 -30 -13 -125 -73 -37 -24 -72
-43 -77 -43 -4 0 -14 -7 -21 -16 -8 -8 -27 -22 -44 -30 -47 -22 -101 -55 -104
-65 -2 -5 -8 -9 -13 -9 -6 0 -34 -15 -63 -32 -28 -18 -61 -38 -72 -45 -94 -58
-230 -141 -252 -153 -15 -8 -28 -18 -30 -22 -2 -5 -7 -8 -12 -8 -7 0 -221
-129 -340 -205 -98 -63 -221 -135 -229 -135 -5 0 -11 -3 -13 -8 -3 -7 -170
-111 -227 -141 -14 -8 -28 -17 -31 -21 -12 -16 -37 -16 -59 1 -13 11 -30 19
-37 19 -8 0 -14 3 -14 8 0 4 -9 12 -20 17 -18 9 -240 144 -308 187 -15 9 -38
23 -52 31 -25 14 -312 188 -340 207 -8 5 -40 24 -70 42 -30 18 -59 36 -65 41
-5 4 -46 29 -90 54 -44 26 -82 50 -85 53 -3 4 -12 9 -20 13 -8 3 -69 40 -135
82 -66 41 -127 78 -135 82 -8 3 -41 24 -73 45 -32 21 -60 38 -62 38 -8 0 -140
85 -143 92 -2 5 -8 8 -14 8 -6 0 -44 21 -86 48 -42 26 -84 52 -93 57 -91 54
-158 95 -234 142 -49 30 -106 64 -125 75 -19 11 -42 25 -50 32 -8 6 -26 17
-40 25 -41 24 -329 199 -358 218 -54 36 -68 44 -99 58 -18 9 -33 20 -33 25 0
6 -5 10 -11 10 -6 0 -50 24 -97 53 -119 73 -115 71 -111 60z"/>
</g>
</svg>
